# xmcd
#
# Track frame offsets:
#	150
#	17164
#	37062
#	50457
#	68978
#	88261
#	104749
#	119284
#	131914
#	147507
#	164825
#	178670
#
# Disc length: 2426 seconds
# Revision: 0
# Processed by: cddbd v1.5.2PL0 Copyright (c) Steve Scherf et al.
# Submitted via: dBpowerAMP V12.0
#
DISCID=bf09780c
DTITLE=Kenne "Cannonball" Cramer - Midnite Ride
DYEAR=2004
DGENRE=Blues
TTITLE0=Good Lovin' (Is Hard To Find)
TTITLE1=Honey Pie
TTITLE2=Christine
TTITLE3=Heat Seeker
TTITLE4=Sweet On Me
TTITLE5=Cannonball Jumps Again
TTITLE6=Blues In The Morning
TTITLE7=Black Widow
TTITLE8=I Don't Know
TTITLE9=Midnite Ride
TTITLE10=Bad For You
TTITLE11=Fight Song
EXTD=
EXTT0=
EXTT1=
EXTT2=
EXTT3=
EXTT4=
EXTT5=
EXTT6=
EXTT7=
EXTT8=
EXTT9=
EXTT10=
EXTT11=
PLAYORDER=
